<svg width="28" height="28" fill="none" xmlns="http://www.w3.org/2000/svg"><path d="M24.465 7.235 14.84 1.969a1.737 1.737 0 0 0-1.68 0L3.535 7.237a1.75 1.75 0 0 0-.91 1.531V19.23a1.75 1.75 0 0 0 .91 1.531l9.625 5.269a1.737 1.737 0 0 0 1.68 0l9.625-5.269a1.75 1.75 0 0 0 .91-1.53V8.77a1.75 1.75 0 0 0-.91-1.535ZM14 3.5l8.787 4.812-3.256 1.783-8.788-4.812L14 3.5Zm0 9.625L5.213 8.312l3.708-2.03 8.787 4.813L14 13.125ZM4.375 9.844l8.75 4.788v9.383l-8.75-4.785V9.844Zm19.25 9.382-8.75 4.79v-9.38l3.5-1.915v3.904a.875.875 0 1 0 1.75 0v-4.862l3.5-1.92v9.382Z" fill="#030607"/></svg>