<svg xmlns="http://www.w3.org/2000/svg" width="16" height="16" fill="none" overflow="visible"><path d="M 14.769 3.84 L 11.692 3.84 C 11.692 1.719 10.039 0 8 0 C 5.961 0 4.308 1.719 4.308 3.84 L 1.231 3.84 C 0.551 3.84 0 4.413 0 5.12 L 0 14.72 C 0 15.427 0.551 16 1.231 16 L 14.769 16 C 15.449 16 16 15.427 16 14.72 L 16 5.12 C 16 4.413 15.449 3.84 14.769 3.84 Z M 8 1.28 C 9.359 1.28 10.462 2.426 10.462 3.84 L 5.538 3.84 C 5.538 2.426 6.641 1.28 8 1.28 Z M 14.769 14.72 L 1.231 14.72 L 1.231 5.12 L 14.769 5.12 Z" fill="rgb(255, 255, 255)"></path></svg>