<svg xmlns="http://www.w3.org/2000/svg" width="16" height="16" fill="none"><g transform="translate(0 2)"><path d="M 0.8 1.5 C 0.358 1.5 0 1.164 0 0.75 L 0 0.75 C 0 0.336 0.358 0 0.8 0 L 15.2 0 C 15.642 0 16 0.336 16 0.75 L 16 0.75 C 16 1.164 15.642 1.5 15.2 1.5 Z" fill="rgb(255, 255, 255)"></path><path d="M 0.8 6.75 C 0.358 6.75 0 6.414 0 6 L 0 6 C 0 5.586 0.358 5.25 0.8 5.25 L 15.2 5.25 C 15.642 5.25 16 5.586 16 6 L 16 6 C 16 6.414 15.642 6.75 15.2 6.75 Z" fill="rgb(255, 255, 255)"></path><path d="M 0.8 12 C 0.358 12 0 11.664 0 11.25 L 0 11.25 C 0 10.836 0.358 10.5 0.8 10.5 L 15.2 10.5 C 15.642 10.5 16 10.836 16 11.25 L 16 11.25 C 16 11.664 15.642 12 15.2 12 Z" fill="rgb(255, 255, 255)"></path></g></svg>