<svg xmlns="http://www.w3.org/2000/svg" width="16" height="16" fill="none" overflow="visible"><path d="M 15.36 3.582 L 8.591 0.142 C 8.223 -0.047 7.777 -0.047 7.409 0.142 L 0.64 3.583 C 0.246 3.783 0.001 4.167 0 4.583 L 0 11.417 C 0.001 11.833 0.246 12.217 0.64 12.417 L 7.409 15.858 C 7.777 16.047 8.223 16.047 8.591 15.858 L 15.36 12.417 C 15.754 12.217 15.999 11.833 16 11.417 L 16 4.584 C 16 4.166 15.754 3.782 15.36 3.582 Z M 8 1.142 L 14.18 4.285 L 11.89 5.45 L 5.709 2.306 Z M 8 7.429 L 1.82 4.285 L 4.428 2.959 L 10.608 6.103 Z M 1.231 5.286 L 7.385 8.414 L 7.385 14.543 L 1.231 11.417 Z M 14.769 11.414 L 8.615 14.543 L 8.615 8.417 L 11.077 7.165 L 11.077 9.715 C 11.077 10.031 11.352 10.287 11.692 10.287 C 12.032 10.287 12.308 10.031 12.308 9.715 L 12.308 6.54 L 14.769 5.286 L 14.769 11.414 Z" fill="rgb(255, 255, 255)"></path></svg>