<svg xmlns="http://www.w3.org/2000/svg" width="16" height="16" fill="none" overflow="visible"><path d="M 15.954 0.673 C 15.934 0.335 15.665 0.066 15.327 0.046 C 8.983 -0.327 3.902 1.583 1.735 5.166 C 0.984 6.392 0.614 7.813 0.672 9.249 C 0.72 10.576 1.106 11.916 1.821 13.237 L 0.195 14.861 C -0.065 15.122 -0.065 15.544 0.195 15.805 C 0.456 16.065 0.878 16.065 1.139 15.805 L 2.764 14.179 C 4.084 14.893 5.424 15.28 6.75 15.327 C 6.843 15.331 6.935 15.332 7.028 15.332 C 8.371 15.336 9.688 14.966 10.833 14.264 C 14.416 12.097 16.327 7.017 15.954 0.673 Z M 10.146 13.124 C 8.25 14.272 6.006 14.291 3.754 13.188 L 11.139 5.804 C 11.4 5.543 11.4 5.121 11.139 4.861 C 10.879 4.6 10.456 4.6 10.196 4.861 L 2.811 12.249 C 1.712 9.999 1.728 7.749 2.875 5.857 C 4.716 2.818 9.092 1.154 14.651 1.352 C 14.85 6.907 13.185 11.283 10.146 13.124 Z" fill="rgb(255, 255, 255)"></path></svg>