<svg xmlns="http://www.w3.org/2000/svg" width="16" height="16" fill="none" overflow="visible"><path d="M 15.82 14.95 L 11.972 11.103 C 14.289 8.322 14.008 4.211 11.335 1.77 C 8.662 -0.67 4.542 -0.576 1.983 1.983 C -0.576 4.542 -0.67 8.662 1.77 11.335 C 4.211 14.008 8.322 14.289 11.103 11.972 L 14.95 15.82 C 15.19 16.06 15.58 16.06 15.82 15.82 C 16.06 15.58 16.06 15.19 15.82 14.95 Z M 1.246 6.779 C 1.246 3.723 3.723 1.246 6.779 1.246 C 9.834 1.246 12.311 3.723 12.311 6.779 C 12.311 9.834 9.834 12.311 6.779 12.311 C 3.725 12.308 1.25 9.833 1.246 6.779 Z" fill="rgb(255, 255, 255)"></path></svg>