<svg xmlns="http://www.w3.org/2000/svg" width="16" height="16" fill="none" overflow="visible"><path d="M 14.667 0 L 1.333 0 C 0.597 0 0 0.573 0 1.28 L 0 5.76 C 0 9.978 2.127 12.534 3.911 13.935 C 5.832 15.444 7.744 15.956 7.828 15.978 C 7.942 16.007 8.063 16.007 8.178 15.978 C 8.261 15.956 10.17 15.444 12.094 13.935 C 13.873 12.534 16 9.978 16 5.76 L 16 1.28 C 16 0.573 15.403 0 14.667 0 Z M 14.667 5.76 C 14.667 8.726 13.528 11.133 11.283 12.914 C 10.306 13.686 9.195 14.287 8 14.69 C 6.821 14.294 5.723 13.704 4.757 12.945 C 2.485 11.161 1.333 8.744 1.333 5.76 L 1.333 1.28 L 14.667 1.28 Z M 4.195 8.133 C 3.935 7.883 3.935 7.477 4.195 7.227 C 4.455 6.977 4.878 6.977 5.138 7.227 L 6.667 8.695 L 10.862 4.667 C 11.122 4.417 11.545 4.417 11.805 4.667 C 12.065 4.917 12.065 5.323 11.805 5.573 L 7.138 10.053 C 7.013 10.173 6.844 10.24 6.667 10.24 C 6.49 10.24 6.32 10.173 6.195 10.053 Z" fill="rgb(255, 255, 255)"></path></svg>