<svg xmlns="http://www.w3.org/2000/svg" width="16" height="16" fill="none" overflow="visible"><path d="M 8 0 C 3.582 0 0 3.582 0 8 C 0 12.418 3.582 16 8 16 C 12.418 16 16 12.418 16 8 C 15.995 3.584 12.416 0.005 8 0 Z M 14.769 8 C 14.77 8.624 14.684 9.246 14.513 9.846 L 11.551 9.846 C 11.739 8.623 11.739 7.377 11.551 6.154 L 14.513 6.154 C 14.684 6.754 14.77 7.376 14.769 8 Z M 6 11.077 L 10 11.077 C 9.606 12.368 8.922 13.552 8 14.538 C 7.079 13.552 6.394 12.368 6 11.077 Z M 5.7 9.846 C 5.489 8.624 5.489 7.376 5.7 6.154 L 10.306 6.154 C 10.517 7.376 10.517 8.624 10.306 9.846 Z M 1.231 8 C 1.23 7.376 1.316 6.754 1.487 6.154 L 4.449 6.154 C 4.261 7.377 4.261 8.623 4.449 9.846 L 1.487 9.846 C 1.316 9.246 1.23 8.624 1.231 8 Z M 10 4.923 L 6 4.923 C 6.394 3.632 7.078 2.448 8 1.462 C 8.921 2.448 9.606 3.632 10 4.923 Z M 14.025 4.923 L 11.285 4.923 C 10.94 3.656 10.358 2.466 9.57 1.415 C 11.497 1.878 13.125 3.159 14.028 4.923 Z M 6.43 1.415 C 5.642 2.466 5.06 3.656 4.715 4.923 L 1.972 4.923 C 2.875 3.159 4.503 1.878 6.43 1.415 Z M 1.972 11.077 L 4.715 11.077 C 5.06 12.344 5.642 13.534 6.43 14.585 C 4.503 14.122 2.875 12.841 1.972 11.077 Z M 9.57 14.585 C 10.358 13.534 10.94 12.344 11.285 11.077 L 14.028 11.077 C 13.125 12.841 11.497 14.122 9.57 14.585 Z" fill="rgb(255, 255, 255)"></path></svg>